<svg width="20" height="20" viewBox="0 0 20 20" fill="none" xmlns="http://www.w3.org/2000/svg">
<path d="M5.00002 10C4.99882 11.1804 5.41526 12.3231 6.17564 13.226C6.93601 14.1288 7.99128 14.7335 9.15466 14.9331C10.318 15.1327 11.5145 14.9142 12.5323 14.3164C13.5501 13.7186 14.3236 12.78 14.7159 11.6667H10V8.33336H18.1709V11.6667H18.1667C17.3942 15.47 14.0317 18.3334 10 18.3334C5.39752 18.3334 1.66669 14.6025 1.66669 10C1.66669 5.39752 5.39752 1.66669 10 1.66669C11.3621 1.66572 12.7036 1.99898 13.9069 2.63724C15.1102 3.27551 16.1386 4.19927 16.9017 5.32752L14.17 7.24002C13.577 6.3437 12.711 5.6623 11.7003 5.29683C10.6896 4.93135 9.5881 4.90126 8.55897 5.21101C7.52984 5.52076 6.62791 6.15386 5.98686 7.01647C5.34581 7.87908 4.99977 8.92529 5.00002 10Z" fill="#2C2C2C"/>
</svg>
